<?xml version="1.0" standalone="no"?>
<!DOCTYPE svg PUBLIC "-//W3C//DTD SVG 20010904//EN"
 "http://www.w3.org/TR/2001/REC-SVG-20010904/DTD/svg10.dtd">
<svg version="1.0" xmlns="http://www.w3.org/2000/svg"
 width="170.000000pt" height="170.000000pt" viewBox="0 0 170.000000 170.000000"
 preserveAspectRatio="xMidYMid meet">
<metadata>
Created by potrace 1.14, written by Peter Selinger 2001-2017
</metadata>
<g transform="translate(0.000000,170.000000) scale(0.100000,-0.100000)"
fill="#000000" stroke="none">
<path d="M1050 1474 c-63 -47 -128 -93 -143 -104 l-29 -18 36 -13 c20 -7 36
-18 36 -25 0 -6 -17 -49 -39 -95 -21 -46 -48 -106 -61 -134 -45 -100 -72 -155
-75 -155 -2 0 -50 56 -105 125 -55 69 -102 125 -104 125 -2 0 -14 -26 -26 -57
-13 -32 -33 -81 -46 -110 -13 -28 -24 -55 -24 -58 0 -4 -6 -21 -14 -38 -52
-119 -96 -226 -96 -234 0 -6 -6 -23 -14 -39 -25 -51 -104 -245 -103 -254 0 -3
-10 -24 -22 -47 -11 -23 -21 -45 -21 -48 0 -3 49 -5 110 -5 129 0 105 -24 197
203 35 89 70 176 77 192 7 17 18 42 24 58 7 15 15 27 19 26 5 0 33 -32 63 -70
30 -39 65 -82 78 -97 13 -15 31 -38 40 -50 l15 -24 15 29 c9 15 15 29 14 30 0
1 20 46 45 100 54 118 92 201 123 268 12 28 33 73 45 100 13 28 36 78 51 113
29 66 37 71 71 47 12 -8 24 -12 27 -7 6 11 -7 189 -19 253 -2 12 -5 39 -7 60
-1 22 -7 39 -12 39 -6 -1 -63 -39 -126 -86z"/>
<path d="M1097 1023 c-27 -59 -82 -181 -119 -263 -11 -25 -23 -49 -25 -53 -3
-5 4 -3 15 4 11 7 25 23 31 36 11 24 38 32 38 11 0 -7 9 -33 20 -58 40 -87
163 -390 163 -400 0 -6 43 -10 115 -10 l115 0 -19 48 c-10 26 -59 146 -109
267 -49 121 -111 272 -137 335 -26 63 -50 121 -54 128 -5 8 -17 -8 -34 -45z"/>
</g>
</svg>
